<svg width="22" height="24" viewBox="0 0 22 24" fill="none" xmlns="http://www.w3.org/2000/svg">
<g filter="url(#filter0_d_149908_273)">
<path d="M14.5004 8.72163V15.2719H7.50165V8.72163H4.70215L11.001 0.708496L17.2999 8.72163H14.5004Z" fill="#4CD62B"/>
<path d="M17.3007 9.44964C17.0978 9.44964 16.8969 9.35866 16.7583 9.18254L10.9997 1.863L5.24188 9.18254C4.99622 9.49476 4.5567 9.53916 4.25716 9.28588C3.95761 9.03043 3.91352 8.57264 4.15777 8.26186L10.4573 0.253822C10.724 -0.0846074 11.2748 -0.0846074 11.5415 0.253822L17.8417 8.26186C18.0867 8.57264 18.0419 9.03115 17.7423 9.28588C17.6129 9.39578 17.4568 9.44964 17.3007 9.44964Z" fill="#4CD62B"/>
<path d="M7.50017 16C7.11314 16 6.80029 15.6747 6.80029 15.2722V8.72195C6.80029 8.31947 7.11314 7.99414 7.50017 7.99414C7.8872 7.99414 8.20004 8.31947 8.20004 8.72195V15.2722C8.20004 15.6747 7.8872 16 7.50017 16Z" fill="#4CD62B"/>
<path d="M14.4989 15.9997H7.50017C7.11314 15.9997 6.80029 15.6743 6.80029 15.2719C6.80029 14.8694 7.11314 14.5441 7.50017 14.5441H14.4989C14.8859 14.5441 15.1988 14.8694 15.1988 15.2719C15.1988 15.6743 14.8859 15.9997 14.4989 15.9997Z" fill="#4CD62B"/>
<path d="M14.4992 16C14.1122 16 13.7993 15.6747 13.7993 15.2722V8.72195C13.7993 8.31947 14.1122 7.99414 14.4992 7.99414C14.8862 7.99414 15.1991 8.31947 15.1991 8.72195V15.2722C15.1991 15.6747 14.8862 16 14.4992 16Z" fill="#4CD62B"/>
<path d="M7.50056 9.44975H4.70036C4.31333 9.44975 4.00049 9.12442 4.00049 8.72195C4.00049 8.31947 4.31333 7.99414 4.70036 7.99414H7.50056C7.88759 7.99414 8.20043 8.31947 8.20043 8.72195C8.20043 9.12442 7.88759 9.44975 7.50056 9.44975Z" fill="#4CD62B"/>
<path d="M17.3001 9.44975H14.4992C14.1122 9.44975 13.7993 9.12442 13.7993 8.72195C13.7993 8.31947 14.1122 7.99414 14.4992 7.99414H17.3001C17.6871 7.99414 18 8.31947 18 8.72195C18 9.12442 17.6871 9.44975 17.3001 9.44975Z" fill="#4CD62B"/>
</g>
<defs>
<filter id="filter0_d_149908_273" x="0" y="0" width="22" height="24" filterUnits="userSpaceOnUse" color-interpolation-filters="sRGB">
<feFlood flood-opacity="0" result="BackgroundImageFix"/>
<feColorMatrix in="SourceAlpha" type="matrix" values="0 0 0 0 0 0 0 0 0 0 0 0 0 0 0 0 0 0 127 0" result="hardAlpha"/>
<feOffset dy="4"/>
<feGaussianBlur stdDeviation="2"/>
<feComposite in2="hardAlpha" operator="out"/>
<feColorMatrix type="matrix" values="0 0 0 0 0 0 0 0 0 0 0 0 0 0 0 0 0 0 0.25 0"/>
<feBlend mode="normal" in2="BackgroundImageFix" result="effect1_dropShadow_149908_273"/>
<feBlend mode="normal" in="SourceGraphic" in2="effect1_dropShadow_149908_273" result="shape"/>
</filter>
</defs>
</svg>
